<?xml version="1.0" encoding="utf-8"?>
<svg version="1.1" xmlns="http://www.w3.org/2000/svg" viewBox="0 0 198 180">
<g>
	<path d="M51.7,173.7c0-6,0-11.3,0-16.6c0-3.6,0-7.1,0.4-10.7c0.3-3.2-1-3.9-3.9-3.9c-13.3,0.1-26.7,0.1-40.1,0.1
		c0-45.4,0-90.1,0-135.7c6.3-0.3,12.1-0.8,18-0.7c25.2,0,50.3,0.3,75.5,0.3c15.6,0,31.3-0.3,46.9-0.4c4.8,0,6.1,0.8,6.3,5.9
		c0.3,6.5,0,13-0.2,19.4c-0.1,3.8-0.6,7.5-1.1,12.4c4.6-5.3,8.7-10.1,13.1-15.1c-2.3-1.6-4.4-3.1-7.1-5c2.3-1.1,3.8-1.9,5.4-2.5
		c6.9-2.7,13.7-5.4,20.6-8c1.1-0.4,2.8-0.7,3.5-0.1c0.7,0.5,1,2.3,0.8,3.4c-1.7,8.1-3.5,16.2-5.5,24.3c-0.3,1.3-1.6,2.4-2.9,4.3
		c-2.7-3.5-4.9-6.4-7.4-9.6c-6.4,7.1-12.7,14.2-19,21.3c-0.4,0.5-0.4,1.4-0.4,2.1c0,25.9,0.1,51.9,0.1,77.8c0,5.3-0.4,5.6-5.7,5.6
		c-21,0-41.9,0.1-62.9,0.2c-1.5,0-3.3,1-4.4,2.1c-3.6,3.8-6.9,8.1-10.5,11.9c-3.6,3.8-7.5,7.3-11.2,11c-1.7,1.7-3.4,3.4-5.3,5
		C54,173,53.1,173.1,51.7,173.7z M70.4,99.5c4.8-5.3,9.7-10.9,14.7-16.4c5.3-5.8,10.5-11.7,15.9-17.4c0.9-1,3.6-1.9,4.1-1.4
		c5.3,5.1,11.2,9.8,14.8,16.6c0.3-0.2,0.7-0.4,1.1-0.7c8.3-9.3,16.7-18.5,24.9-27.9c0.8-0.9,1.2-2.5,1.2-3.8c0-9.7-0.3-19.3-0.2-29
		c0-3.9-1.6-5-5.3-5c-37.3,0-74.5,0-111.8,0c-4.6,0-9.2,0-13,0c0,4.2-0.1,7.6,0,10.9c0.3,5.8,0.7,11.6,1.1,17.4
		c0,0.4-0.1,0.7-0.1,1.1c-0.4,3.6-1,7.3-1,10.9c0,8.5,0.7,17,0.5,25.5c-0.3,14.2-1,28.3-1.5,42.5c0.5-0.4,1.1-0.9,1.6-1.4
		C28,109.7,38.6,98.1,49.3,86.5c4.3-4.7,6.1-4.5,10.3,0.6c1.1,1.3,2.5,2.2,3.6,3.5C65.5,93.3,67.7,96.1,70.4,99.5z M53.1,94.9
		c-7.8,8.8-15.3,17.4-22.8,25.8c-3.2,3.6-6.5,7-9.6,10.7c-0.7,0.8-1.1,2-1,3c0.1,0.5,1.5,1.2,2.4,1.2c10.7-0.1,21.3-0.4,31.9-0.5
		c2.5,0,5.1,0.4,5.2,3.6c0.1,4.2-0.1,8.3-0.3,12.5c-0.1,2.2-0.3,4.4-0.5,7.4c1.5-1.1,2.3-1.6,3-2.3c3.9-4,7.9-7.9,11.5-12.2
		c4.7-5.5,9-9.9,17.7-9.1c12.3,1.2,24.9,0.1,37.3,0c4.4,0,8.9-0.2,13.3,0.2c5.7,0.5,5.7,0.7,5.7-5.2c0-14.4,0-28.8,0-43.1
		c0-6.9,0-13.8,0-21.6c-1.3,1.4-1.9,2.1-2.5,2.9c-6.6,7.4-13.1,14.8-19.7,22.1c-2.2,2.4-4.2,3.1-6.9,0.1c-4.7-5.1-9.8-9.9-14.5-14.6
		c-0.9,1.2-1.8,2.6-2.8,3.8C94.2,86.8,88,93.9,81.7,101c-2.9,3.3-5.9,6.4-9,9.6c-1.7,1.8-3.2,1.7-5-0.3C63,105,57.9,99.9,53.1,94.9z
		"/>
</g>
</svg>
